# xmcd CD database file
#
# Track frame offsets:
#	150
#	31445
#	62722
#	71277
#	87132
#	114062
#	130862
#	162432
#	188252
#
# Disc length: 3082 seconds
#
# Revision: 0
# Processed by: cddbd v1.5.2PL0 Copyright (c) Steve Scherf et al.
# Submitted via: CDex 1.51
#
DISCID=660c0809
DTITLE=Bongo and Friends - Different Roads
DYEAR=1996
DGENRE=New Age
TTITLE0=Spirit
TTITLE1=Blues in Love
TTITLE2=Quick Shoes
TTITLE3=I wanna Love You
TTITLE4=Keep Going
TTITLE5=Big Lie
TTITLE6=The Story
TTITLE7=For You
TTITLE8=Navayo
EXTD=YEAR: 1996
EXTT0=
EXTT1=
EXTT2=
EXTT3=
EXTT4=
EXTT5=
EXTT6=
EXTT7=
EXTT8=
PLAYORDER=
